<svg width="34" height="25" viewBox="0 0 34 25" fill="none" xmlns="http://www.w3.org/2000/svg">
<path d="M4.25 9.35166e-09C3.28713 -6.28948e-05 2.35277 0.31722 1.59996 0.899886C0.847143 1.48255 0.320489 2.29606 0.10625 3.20719L17 13.2289L33.8937 3.20719C33.6795 2.29606 33.1529 1.48255 32.4 0.899886C31.6472 0.31722 30.7129 -6.28948e-05 29.75 9.35166e-09H4.25ZM0 20.2125V5.56462L12.3314 12.8783L0 20.2125ZM14.3671 14.0869L0.405875 22.3905C0.750514 23.0968 1.29481 23.6936 1.97537 24.1114C2.65594 24.5291 3.44477 24.7506 4.25 24.75H17.544C17.183 23.7562 16.9991 22.71 17 21.6562C16.9985 20.3014 17.3034 18.9627 17.8931 17.7347C18.4827 16.5066 19.3429 15.4191 20.4128 14.5489L19.6329 14.0848L17 15.6461L14.3671 14.0869ZM34 15.8214V5.56256L21.6686 12.8762L22.3869 13.3052C23.6884 12.6926 25.1161 12.3746 26.5625 12.375C29.5672 12.375 32.2469 13.7197 34 15.8214Z" fill="#AC0000"/>
</svg>
