<svg width="60" height="60" viewBox="0 0 60 60" fill="none" xmlns="http://www.w3.org/2000/svg">
<g clip-path="url(#clip0_955_2821)">
<path d="M0 30C0 22.0435 3.16071 14.4129 8.7868 8.7868C14.4129 3.16071 22.0435 0 30 0C37.9565 0 45.5871 3.16071 51.2132 8.7868C56.8393 14.4129 60 22.0435 60 30C60 37.9565 56.8393 45.5871 51.2132 51.2132C45.5871 56.8393 37.9565 60 30 60C22.0435 60 14.4129 56.8393 8.7868 51.2132C3.16071 45.5871 0 37.9565 0 30ZM28.125 4.03875C25.6125 4.80375 23.1187 7.11375 21.0487 10.995C20.5112 12.0025 20.0175 13.0925 19.5675 14.265C22.2113 14.8537 25.0875 15.2288 28.125 15.3413V4.03875ZM15.9338 13.2712C16.4688 11.8287 17.07 10.4812 17.7375 9.22875C18.3902 8.0052 19.1388 6.83528 19.9762 5.73C16.7833 7.05213 13.8828 8.99172 11.4413 11.4375C12.8013 12.13 14.2987 12.7388 15.9338 13.2712ZM13.1588 28.125C13.2937 24.1125 13.8637 20.2987 14.7937 16.845C12.7629 16.1984 10.7979 15.3609 8.925 14.3438C5.93755 18.3534 4.16475 23.1368 3.8175 28.125H13.1588ZM18.4088 17.8462C17.5233 21.2051 17.0201 24.6532 16.9087 28.125H28.125V19.0912C24.7125 18.9788 21.4387 18.5475 18.4088 17.8462ZM31.875 19.0875V28.125H43.0875C42.9774 24.6533 42.4754 21.2052 41.5912 17.8462C38.5612 18.5475 35.2875 18.9713 31.875 19.0875ZM16.9125 31.875C17.0438 35.5762 17.5725 39.0525 18.4088 42.1538C21.6002 41.4292 24.8539 41.0135 28.125 40.9125V31.875H16.9125ZM31.875 31.875V40.9088C35.2875 41.0213 38.5612 41.4525 41.5912 42.1538C42.4275 39.0525 42.9562 35.5762 43.0913 31.875H31.875ZM19.5675 45.735C20.0175 46.9075 20.5112 47.9975 21.0487 49.005C23.1187 52.8862 25.6162 55.1925 28.125 55.9613V44.6625C25.0875 44.775 22.2113 45.1463 19.5675 45.735ZM19.98 54.27C19.1412 53.1648 18.3914 51.9949 17.7375 50.7712C17.0483 49.4635 16.4457 48.1118 15.9338 46.725C14.3912 47.221 12.8893 47.8354 11.4413 48.5625C13.8828 51.0083 16.787 52.9479 19.98 54.27ZM14.7937 43.155C13.8214 39.4693 13.2717 35.685 13.155 31.875H3.8175C4.16475 36.8632 5.93755 41.6466 8.925 45.6562C10.6875 44.6888 12.6562 43.8488 14.7937 43.155ZM40.0238 54.27C43.2151 52.9486 46.1142 51.0103 48.555 48.5662C47.1082 47.8393 45.6075 47.225 44.0662 46.7288C43.5541 48.1143 42.9516 49.4647 42.2625 50.7712C41.6098 51.9948 40.8612 53.1647 40.0238 54.27ZM31.875 44.6588V55.9613C34.3875 55.1963 36.8812 52.8862 38.9513 49.005C39.4912 47.9975 39.985 46.9075 40.4325 45.735C37.6187 45.1174 34.7542 44.7546 31.875 44.6588ZM45.2063 43.155C47.3438 43.8488 49.3125 44.6888 51.075 45.6562C54.0625 41.6466 55.8353 36.8632 56.1825 31.875H46.845C46.7283 35.685 46.1786 39.4693 45.2063 43.155ZM56.1825 28.125C55.8353 23.1368 54.0625 18.3534 51.075 14.3438C49.3125 15.3112 47.3438 16.1513 45.2063 16.845C46.1362 20.295 46.7062 24.1125 46.845 28.125H56.1825ZM42.2625 9.22875C42.9275 10.4838 43.53 11.8313 44.07 13.2712C45.61 12.7748 47.1094 12.1605 48.555 11.4338C46.1139 8.99107 43.2148 7.05408 40.0238 5.73375C40.8413 6.795 41.5913 7.9725 42.2625 9.22875ZM40.4325 14.265C40.0045 13.1464 39.5098 12.0545 38.9513 10.995C36.8812 7.11375 34.3875 4.8075 31.875 4.03875V15.3375C34.9125 15.225 37.7887 14.8537 40.4325 14.265Z" fill="#CD0101"/>
</g>
<defs>
<clipPath id="clip0_955_2821">
<rect width="60" height="60" fill="white"/>
</clipPath>
</defs>
</svg>
