<svg width="30" height="40" viewBox="0 0 30 40" fill="none" xmlns="http://www.w3.org/2000/svg">
<path d="M25.415 22.35C24.105 25.005 22.33 27.65 20.515 30.025C18.7914 32.2625 16.9505 34.4072 15 36.45C13.0495 34.4072 11.2086 32.2625 9.485 30.025C7.67 27.65 5.895 25.005 4.585 22.35C3.26 19.6675 2.5 17.155 2.5 15C2.5 11.6848 3.81696 8.50537 6.16117 6.16117C8.50537 3.81696 11.6848 2.5 15 2.5C18.3152 2.5 21.4946 3.81696 23.8388 6.16117C26.183 8.50537 27.5 11.6848 27.5 15C27.5 17.155 26.7375 19.6675 25.415 22.35ZM15 40C15 40 30 25.785 30 15C30 11.0218 28.4196 7.20644 25.6066 4.3934C22.7936 1.58035 18.9782 0 15 0C11.0218 0 7.20644 1.58035 4.3934 4.3934C1.58035 7.20644 5.92805e-08 11.0218 0 15C0 25.785 15 40 15 40Z" fill="#AC0000"/>
</svg>
