<svg width="59" height="66" viewBox="0 0 59 66" fill="none" xmlns="http://www.w3.org/2000/svg">
<path fill-rule="evenodd" clip-rule="evenodd" d="M40.0241 25.352C40.1958 25.5436 40.3321 25.7712 40.425 26.0218C40.518 26.2724 40.5658 26.541 40.5658 26.8123C40.5658 27.0836 40.518 27.3522 40.425 27.6028C40.3321 27.8533 40.1958 28.0809 40.0241 28.2725L28.9616 40.6475C28.7904 40.8396 28.5869 40.992 28.3629 41.096C28.1389 41.1999 27.8988 41.2535 27.6563 41.2535C27.4137 41.2535 27.1736 41.1999 26.9496 41.096C26.7256 40.992 26.5222 40.8396 26.3509 40.6475L20.8196 34.46C20.6482 34.2683 20.5122 34.0406 20.4195 33.7901C20.3267 33.5395 20.2789 33.271 20.2789 32.9998C20.2789 32.7286 20.3267 32.46 20.4195 32.2095C20.5122 31.9589 20.6482 31.7313 20.8196 31.5395C20.9911 31.3478 21.1946 31.1957 21.4185 31.0919C21.6425 30.9881 21.8826 30.9347 22.125 30.9347C22.3674 30.9347 22.6075 30.9881 22.8315 31.0919C23.0555 31.1957 23.259 31.3478 23.4304 31.5395L27.6563 36.2709L37.4134 25.352C37.5847 25.16 37.7881 25.0076 38.0121 24.9036C38.2361 24.7996 38.4762 24.7461 38.7188 24.7461C38.9613 24.7461 39.2014 24.7996 39.4254 24.9036C39.6494 25.0076 39.8529 25.16 40.0241 25.352Z" fill="#CD0101"/>
<path d="M11.0625 0H47.9375C49.8935 0 51.7693 0.869194 53.1524 2.41637C54.5355 3.96354 55.3125 6.06196 55.3125 8.25V57.75C55.3125 59.938 54.5355 62.0365 53.1524 63.5836C51.7693 65.1308 49.8935 66 47.9375 66H11.0625C9.10653 66 7.23067 65.1308 5.84759 63.5836C4.46451 62.0365 3.6875 59.938 3.6875 57.75V53.625H7.375V57.75C7.375 58.844 7.7635 59.8932 8.45504 60.6668C9.14658 61.4404 10.0845 61.875 11.0625 61.875H47.9375C48.9155 61.875 49.8534 61.4404 50.545 60.6668C51.2365 59.8932 51.625 58.844 51.625 57.75V8.25C51.625 7.15598 51.2365 6.10677 50.545 5.33318C49.8534 4.5596 48.9155 4.125 47.9375 4.125H11.0625C10.0845 4.125 9.14658 4.5596 8.45504 5.33318C7.7635 6.10677 7.375 7.15598 7.375 8.25V12.375H3.6875V8.25C3.6875 6.06196 4.46451 3.96354 5.84759 2.41637C7.23067 0.869194 9.10653 0 11.0625 0Z" fill="#CD0101"/>
<path d="M3.6875 20.625V18.5625C3.6875 18.0155 3.88175 17.4909 4.22752 17.1041C4.57329 16.7173 5.04226 16.5 5.53125 16.5C6.02024 16.5 6.48921 16.7173 6.83498 17.1041C7.18075 17.4909 7.375 18.0155 7.375 18.5625V20.625H9.21875C9.70774 20.625 10.1767 20.8423 10.5225 21.2291C10.8682 21.6159 11.0625 22.1405 11.0625 22.6875C11.0625 23.2345 10.8682 23.7591 10.5225 24.1459C10.1767 24.5327 9.70774 24.75 9.21875 24.75H1.84375C1.35476 24.75 0.885792 24.5327 0.540022 24.1459C0.194252 23.7591 0 23.2345 0 22.6875C0 22.1405 0.194252 21.6159 0.540022 21.2291C0.885792 20.8423 1.35476 20.625 1.84375 20.625H3.6875ZM3.6875 33V30.9375C3.6875 30.3905 3.88175 29.8659 4.22752 29.4791C4.57329 29.0923 5.04226 28.875 5.53125 28.875C6.02024 28.875 6.48921 29.0923 6.83498 29.4791C7.18075 29.8659 7.375 30.3905 7.375 30.9375V33H9.21875C9.70774 33 10.1767 33.2173 10.5225 33.6041C10.8682 33.9909 11.0625 34.5155 11.0625 35.0625C11.0625 35.6095 10.8682 36.1341 10.5225 36.5209C10.1767 36.9077 9.70774 37.125 9.21875 37.125H1.84375C1.35476 37.125 0.885792 36.9077 0.540022 36.5209C0.194252 36.1341 0 35.6095 0 35.0625C0 34.5155 0.194252 33.9909 0.540022 33.6041C0.885792 33.2173 1.35476 33 1.84375 33H3.6875ZM3.6875 45.375V43.3125C3.6875 42.7655 3.88175 42.2409 4.22752 41.8541C4.57329 41.4673 5.04226 41.25 5.53125 41.25C6.02024 41.25 6.48921 41.4673 6.83498 41.8541C7.18075 42.2409 7.375 42.7655 7.375 43.3125V45.375H9.21875C9.70774 45.375 10.1767 45.5923 10.5225 45.9791C10.8682 46.3659 11.0625 46.8905 11.0625 47.4375C11.0625 47.9845 10.8682 48.5091 10.5225 48.8959C10.1767 49.2827 9.70774 49.5 9.21875 49.5H1.84375C1.35476 49.5 0.885792 49.2827 0.540022 48.8959C0.194252 48.5091 0 47.9845 0 47.4375C0 46.8905 0.194252 46.3659 0.540022 45.9791C0.885792 45.5923 1.35476 45.375 1.84375 45.375H3.6875Z" fill="#CD0101"/>
</svg>
