<svg width="41" height="41" viewBox="0 0 41 41" fill="none" xmlns="http://www.w3.org/2000/svg">
<path d="M20.5 0C14.9368 0 14.2373 0.025625 12.0514 0.123C9.86563 0.2255 8.37681 0.568875 7.0725 1.07625C5.70373 1.58958 4.46424 2.39696 3.44144 3.44144C2.39696 4.46424 1.58958 5.70373 1.07625 7.0725C0.568875 8.37425 0.222938 9.86562 0.123 12.0437C0.025625 14.2347 0 14.9317 0 20.5026C0 26.0683 0.025625 26.7653 0.123 28.9511C0.2255 31.1344 0.568875 32.6232 1.07625 33.9275C1.60156 35.2754 2.30113 36.4182 3.44144 37.5586C4.57919 38.6989 5.72206 39.401 7.06994 39.9237C8.37681 40.4311 9.86306 40.7771 12.0463 40.877C14.2347 40.9744 14.9317 41 20.5 41C26.0683 41 26.7628 40.9744 28.9511 40.877C31.1318 40.7745 32.6258 40.4311 33.9301 39.9237C35.2979 39.4101 36.5365 38.6027 37.5586 37.5586C38.6989 36.4182 39.3984 35.2754 39.9237 33.9275C40.4286 32.6232 40.7745 31.1344 40.877 28.9511C40.9744 26.7653 41 26.0683 41 20.5C41 14.9317 40.9744 14.2347 40.877 12.0463C40.7745 9.86563 40.4286 8.37425 39.9237 7.0725C39.4104 5.70373 38.603 4.46424 37.5586 3.44144C36.5358 2.39696 35.2963 1.58958 33.9275 1.07625C32.6206 0.568875 31.1292 0.222938 28.9486 0.123C26.7602 0.025625 26.0658 0 20.4949 0H20.5ZM18.6627 3.69513H20.5026C25.9761 3.69513 26.6244 3.71306 28.7846 3.813C30.7833 3.90269 31.8698 4.23838 32.5924 4.51769C33.5482 4.88925 34.2324 5.33512 34.9499 6.05263C35.6674 6.77012 36.1108 7.45175 36.4823 8.41012C36.7642 9.13019 37.0973 10.2167 37.187 12.2154C37.2869 14.3756 37.3074 15.0239 37.3074 20.4949C37.3074 25.9658 37.2869 26.6167 37.187 28.7769C37.0973 30.7756 36.7616 31.8596 36.4823 32.5822C36.1513 33.4711 35.6271 34.2755 34.9474 34.9371C34.2299 35.6546 33.5483 36.0979 32.5899 36.4695C31.8724 36.7514 30.7859 37.0845 28.7846 37.1768C26.6244 37.2741 25.9761 37.2972 20.5026 37.2972C15.0291 37.2972 14.3782 37.2741 12.218 37.1768C10.2193 37.0845 9.13531 36.7514 8.41269 36.4695C7.52307 36.1396 6.71785 35.6162 6.05519 34.9371C5.37426 34.275 4.84909 33.4697 4.51769 32.5796C4.23838 31.8596 3.90269 30.7731 3.813 28.7743C3.71563 26.6141 3.69513 25.9658 3.69513 20.4897C3.69513 15.0137 3.71563 14.3705 3.813 12.2103C3.90525 10.2116 4.23838 9.12506 4.52025 8.40244C4.89181 7.44663 5.33769 6.76244 6.05519 6.04494C6.77269 5.32744 7.45431 4.88413 8.41269 4.51256C9.13531 4.23069 10.2193 3.89756 12.218 3.80531C14.1091 3.71819 14.842 3.69256 18.6627 3.69V3.69513ZM31.4444 7.09812C31.1214 7.09812 30.8015 7.16176 30.503 7.28538C30.2046 7.40901 29.9334 7.59021 29.705 7.81864C29.4765 8.04707 29.2953 8.31826 29.1717 8.61672C29.0481 8.91518 28.9844 9.23507 28.9844 9.55813C28.9844 9.88118 29.0481 10.2011 29.1717 10.4995C29.2953 10.798 29.4765 11.0692 29.705 11.2976C29.9334 11.526 30.2046 11.7072 30.503 11.8309C30.8015 11.9545 31.1214 12.0181 31.4444 12.0181C32.0969 12.0181 32.7226 11.7589 33.1839 11.2976C33.6453 10.8363 33.9044 10.2106 33.9044 9.55813C33.9044 8.90569 33.6453 8.27998 33.1839 7.81864C32.7226 7.3573 32.0969 7.09812 31.4444 7.09812ZM20.5026 9.97325C19.1062 9.95146 17.7194 10.2077 16.423 10.727C15.1266 11.2463 13.9464 12.0183 12.9513 12.9981C11.9561 13.9779 11.1657 15.1458 10.6263 16.434C10.0868 17.7221 9.809 19.1047 9.809 20.5013C9.809 21.8978 10.0868 23.2804 10.6263 24.5686C11.1657 25.8567 11.9561 27.0247 12.9513 28.0045C13.9464 28.9843 15.1266 29.7563 16.423 30.2756C17.7194 30.7949 19.1062 31.0511 20.5026 31.0293C23.2663 30.9862 25.9023 29.858 27.8415 27.8883C29.7807 25.9186 30.8676 23.2654 30.8676 20.5013C30.8676 17.7372 29.7807 15.0839 27.8415 13.1142C25.9023 11.1445 23.2663 10.0164 20.5026 9.97325ZM20.5026 13.6658C21.4 13.6658 22.2887 13.8426 23.1179 14.186C23.9471 14.5295 24.7005 15.0329 25.3351 15.6675C25.9697 16.3021 26.4731 17.0555 26.8165 17.8847C27.16 18.7138 27.3368 19.6025 27.3368 20.5C27.3368 21.3975 27.16 22.2862 26.8165 23.1153C26.4731 23.9445 25.9697 24.6979 25.3351 25.3325C24.7005 25.9671 23.9471 26.4705 23.1179 26.814C22.2887 27.1574 21.4 27.3342 20.5026 27.3342C18.69 27.3342 16.9517 26.6142 15.6701 25.3325C14.3884 24.0508 13.6684 22.3125 13.6684 20.5C13.6684 18.6875 14.3884 16.9492 15.6701 15.6675C16.9517 14.3858 18.69 13.6658 20.5026 13.6658Z" fill="#AC0000"/>
</svg>
