<svg width="42" height="41" viewBox="0 0 42 41" fill="none" xmlns="http://www.w3.org/2000/svg">
<path d="M35.864 5.9605C33.9301 4.06296 31.6268 2.55865 29.0884 1.53531C26.55 0.511978 23.8273 -0.00989332 21.0791 0.000142026C9.56391 0.000142026 0.179307 9.11749 0.168759 20.3104C0.168759 23.8954 1.13385 27.3829 2.95593 30.4707L0 41L11.0854 38.1761C14.1507 39.8014 17.5872 40.6517 21.0791 40.6489H21.0896C32.6075 40.6489 41.9894 31.5316 42 20.3284C42.0023 17.6584 41.4612 15.0144 40.4076 12.5485C39.3541 10.0826 37.8117 7.84366 35.864 5.9605ZM21.0791 37.2101C17.9654 37.2077 14.9094 36.3936 12.2298 34.8526L11.5969 34.4836L5.02059 36.1595L6.77674 29.9249L6.36539 29.2817C4.62455 26.5919 3.70387 23.4778 3.71007 20.3002C3.71007 11.0086 11.5073 3.42876 21.0896 3.42876C23.3725 3.42478 25.6336 3.85996 27.7425 4.70921C29.8515 5.55846 31.7666 6.80499 33.3774 8.37693C34.9936 9.94299 36.2748 11.8044 37.1474 13.8538C38.0199 15.9032 38.4665 18.1002 38.4613 20.3181C38.4508 29.643 30.6536 37.2101 21.0791 37.2101ZM30.6114 24.5667C30.0919 24.3131 27.5262 23.0856 27.0437 22.9114C26.5638 22.7448 26.2131 22.6577 25.8703 23.1651C25.5196 23.6699 24.5176 24.8204 24.217 25.151C23.9164 25.4918 23.6052 25.5302 23.0831 25.2791C22.5637 25.0229 20.8787 24.4899 18.8852 22.7551C17.3295 21.4098 16.2879 19.7441 15.9768 19.2393C15.6762 18.732 15.9478 18.4603 16.2088 18.2066C16.4382 17.9811 16.7283 17.6121 16.9893 17.32C17.253 17.0279 17.34 16.8126 17.5114 16.4744C17.6828 16.131 17.6011 15.8389 17.4719 15.5852C17.34 15.3315 16.2985 12.828 15.8581 11.8184C15.4362 10.8215 15.0064 10.9599 14.6847 10.9471C14.3841 10.9292 14.0334 10.9292 13.6827 10.9292C13.4179 10.9357 13.1573 10.9953 12.9173 11.1042C12.6773 11.2131 12.463 11.369 12.2878 11.5621C11.8079 12.0695 10.4657 13.2969 10.4657 15.8005C10.4657 18.304 12.3379 20.7102 12.6016 21.051C12.86 21.3918 16.2774 26.5142 21.5221 28.718C22.7614 29.2433 23.7371 29.5534 24.4991 29.7891C25.7516 30.1786 26.8828 30.1197 27.7846 29.9941C28.7867 29.8455 30.8724 28.7641 31.3128 27.5777C31.7452 26.3887 31.7452 25.3739 31.6134 25.1612C31.4842 24.946 31.1335 24.8204 30.6114 24.5667Z" fill="#AC0000"/>
</svg>
